#!OML:ASF H:\Terrain\Patient Classification 1\Terrain2\Thursday\justin.ASF
:FULLY-SPECIFIED
:DEGREES
1798
root -1.77533 17.4797 3.48166 -177.033 -5.64855 -175.997
lowerback 6.68931 1.32716 2.53668
upperback 3.28692 1.6665 2.24139
thorax -0.349926 0.726781 0.768817
lowerneck -10.5795 -1.31688 -11.0099
upperneck 37.0049 -6.98341 8.07162
head 15.3547 -4.91707 3.90002
rclavicle 3.67752e-015 2.5842e-014
rhumerus -33.4728 -7.73678 -80.7934
rradius 35.4951
rwrist -9.32218
rhand -18.2672 15.9463
rfingers 7.12502
rthumb 8.01249 -13.8818
lclavicle 3.67752e-015 2.5842e-014
lhumerus -38.5235 15.292 77.1375
lradius 19.9775
lwrist -6.58454
lhand -15.4972 22.4997
lfingers 7.12502
lthumb 10.6852 52.208
rfemur 2.81663 6.35871 24.5784
rtibia 38.9107
rfoot 20.6769 21.5759
rtoes 42.9975
lfemur -24.1951 1.46862 -15.4802
ltibia 30.4799
lfoot -5.70888 -18.2499
ltoes 4.9424
1799
root -1.80598 17.5203 3.36652 -177.195 -5.35435 -176.36
lowerback 6.76301 1.47457 2.26368
upperback 3.40484 1.84454 2.04055
thorax -0.271449 0.815688 0.702865
lowerneck -10.6956 -1.4024 -10.7127
upperneck 36.9481 -7.11402 8.00485
head 15.3577 -4.92323 3.79445
rclavicle -3.45885e-014 -2.78299e-015
rhumerus -33.2506 -8.04836 -80.6349
rradius 35.7011
rwrist -8.34148
rhand -17.533 16.0383
rfingers 7.12502
rthumb 8.72103 -13.7615
lclavicle -3.45885e-014 -2.78299e-015
lhumerus -38.3844 14.9085 77.1551
lradius 19.9961
lwrist -6.83113
lhand -15.2004 22.9149
lfingers 7.12502
lthumb 10.9715 52.6083
rfemur 1.45491 6.12946 23.8145
rtibia 41.3902
rfoot 22.1615 21.6216
rtoes 40.4305
lfemur -23.0326 1.69253 -16.0139
ltibia 29.6562
lfoot -5.91066 -18.1767
ltoes 4.80781
1800
root -1.83814 17.5901 3.24408 -177.32 -4.9606 -176.677
lowerback 6.80381 1.54219 1.92127
upperback 3.4667 1.91349 1.95161
thorax -0.239417 0.847497 0.798123
lowerneck -10.815 -1.35588 -10.6028
upperneck 37.0028 -6.99405 7.84261
head 15.3842 -4.87473 3.72344
rclavicle -1.14301e-015 2.0276e-014
rhumerus -33.1968 -8.00337 -80.4863
rradius 36.2349
rwrist -7.69702
rhand -16.8179 15.8296
rfingers 7.12502
rthumb 9.41105 -13.9403
lclavicle -1.14301e-015 2.0276e-014
lhumerus -38.411 14.5034 77.3893
lradius 20.1166
lwrist -6.5548
lhand -14.8684 23.6132
lfingers 7.12502
lthumb 11.2916 53.2893
rfemur -0.311791 5.77436 23.0643
rtibia 43.9788
rfoot 22.6028 22.8583
rtoes 34.5603
lfemur -21.7937 1.83838 -16.4719
ltibia 28.7596
lfoot -5.8112 -17.7344
ltoes 6.59403
1801
root -1.86779 17.6263 3.13425 -177.393 -4.43932 -176.856
lowerback 6.90835 1.64837 1.77539
upperback 3.55499 2.04133 1.82321
thorax -0.207168 0.909143 0.737701
lowerneck -11.3336 -1.40108 -10.3176
upperneck 37.1438 -6.96759 7.60629
head 15.5534 -4.83108 3.57093
rclavicle -1.83876e-014 -1.82882e-014
rhumerus -33.06 -7.82747 -80.7588
rradius 37.0508
rwrist -8.46257
rhand -17.1946 15.7685
rfingers 7.12502
rthumb 9.04759 -14.0174
lclavicle -1.83876e-014 -1.82882e-014
lhumerus -38.2454 13.9595 77.6172
lradius 20.3072
lwrist -6.0048
lhand -14.5286 23.9645
lfingers 7.12502
lthumb 11.6193 53.6223
rfemur -1.90629 5.55645 22.5119
rtibia 46.5435
rfoot 23.571 22.7329
rtoes 30.9316
lfemur -20.7119 2.01565 -16.7629
ltibia 27.9004
lfoot -5.56988 -17.2262
ltoes 8.43118
1802
root -1.89849 17.6229 3.03068 -177.548 -4.03014 -177.217
lowerback 7.05649 1.45428 1.11593
upperback 3.46097 1.75434 1.97974
thorax -0.412441 0.757714 1.28296
lowerneck -11.1785 -1.10018 -10.568
upperneck 37.2317 -6.40528 7.32704
head 15.4798 -4.69375 3.58787
rclavicle -5.56597e-015 3.4191e-014
rhumerus -33.0955 -6.41911 -80.8744
rradius 37.6114
rwrist -9.26601
rhand -17.7783 16.1407
rfingers 7.12502
rthumb 8.48427 -13.6688
lclavicle -5.56597e-015 3.4191e-014
lhumerus -38.9398 14.5791 77.649
lradius 20.6745
lwrist -5.74703
lhand -14.2492 23.2795
lfingers 7.12502
lthumb 11.8888 52.922
rfemur -3.00058 5.14933 21.7691
rtibia 48.9313
rfoot 24.6638 22.2449
rtoes 28.6035
lfemur -19.7084 1.98689 -17.232
ltibia 27.2699
lfoot -5.62759 -16.8403
ltoes 9.88898
1803
root -1.92476 17.6103 2.92864 -177.569 -3.57856 -177.536
lowerback 6.96939 1.43853 0.606346
upperback 3.50094 1.69869 2.05753
thorax -0.340418 0.723045 1.65517
lowerneck -11.2372 -0.998639 -10.8417
upperneck 37.2321 -6.13278 7.25374
head 15.4648 -4.62744 3.64949
rclavicle -1.94809e-014 -7.95139e-015
rhumerus -32.8209 -5.67851 -80.798
rradius 37.9589
rwrist -9.5208
rhand -17.9782 16.0199
rfingers 7.12502
rthumb 8.29139 -13.7974
lclavicle -1.94809e-014 -7.95139e-015
lhumerus -39.0523 14.7832 77.8892
lradius 20.9452
lwrist -5.54013
lhand -13.958 23.0358
lfingers 7.12502
lthumb 12.1696 52.6619
rfemur -4.07677 4.74448 21.0782
rtibia 51.1361
rfoot 25.7841 21.4916
rtoes 27.7795
lfemur -19.0376 1.8563 -17.627
ltibia 26.9545
lfoot -5.94355 -16.4909
ltoes 11.091
1804
root -1.94431 17.6103 2.82879 -177.633 -3.1609 -178.059
lowerback 6.97118 1.62229 0.0945764
upperback 3.64053 1.90651 1.84535
thorax -0.213161 0.821296 1.71071
lowerneck -11.4627 -1.12641 -10.6729
upperneck 37.107 -6.28039 7.28591
head 15.4727 -4.63205 3.60725
rclavicle -2.14687e-014 4.77083e-015
rhumerus -32.483 -5.81269 -80.8392
rradius 38.3895
rwrist -9.99231
rhand -17.8167 14.8258
rfingers 7.12502
rthumb 8.44723 -14.9853
lclavicle -2.14687e-014 4.77083e-015
lhumerus -38.5543 14.1262 78.2023
lradius 21.0019
lwrist -5.25417
lhand -13.6358 23.7746
lfingers 7.12502
lthumb 12.4803 53.382
rfemur -5.18745 4.33237 20.229
rtibia 53.3178
rfoot 26.7519 20.7045
rtoes 28.6061
lfemur -18.3322 1.67728 -18.2259
ltibia 26.6744
lfoot -6.05345 -16.1902
ltoes 12.1801
1805
root -1.96638 17.6191 2.72619 -177.986 -2.86276 -178.634
lowerback 7.36905 1.90223 -0.186105
upperback 3.74704 2.25523 1.37648
thorax -0.326105 0.994383 1.35079
lowerneck -11.5418 -1.31169 -10.0478
upperneck 36.9658 -6.73649 7.44302
head 15.4643 -4.69672 3.48486
rclavicle -1.14798e-014 -3.16068e-014
rhumerus -32.4312 -6.62572 -81.0183
rradius 38.9285
rwrist -10.449
rhand -17.6778 13.7817
rfingers 7.12502
rthumb 8.58131 -16.0239
lclavicle -1.14798e-014 -3.16068e-014
lhumerus -37.9502 12.6761 78.3832
lradius 20.947
lwrist -4.87197
lhand -13.4428 24.4196
lfingers 7.12502
lthumb 12.6664 54.0155
rfemur -6.09117 3.7787 19.3519
rtibia 55.5283
rfoot 25.0945 20.4605
rtoes 22.052
lfemur -17.2348 1.63884 -18.9081
ltibia 26.2608
lfoot -6.22143 -16.1055
ltoes 12.594
1806
root -1.98868 17.643 2.61561 -178.302 -2.71325 -178.852
lowerback 7.61471 1.643 -0.641589
upperback 3.70578 1.87864 1.56599
thorax -0.51588 0.798235 1.8238
lowerneck -11.5231 -0.941837 -10.5401
upperneck 37.2356 -6.15844 7.46938
head 15.5343 -4.56074 3.68215
rclavicle 2.38542e-014 -2.14687e-014
rhumerus -32.3888 -5.46921 -80.9429
rradius 39.4227
rwrist -10.9507
rhand -17.7618 13.3983
rfingers 7.12502
rthumb 8.50025 -16.4106
lclavicle 2.38542e-014 -2.14687e-014
lhumerus -38.3939 12.9723 78.5873
lradius 21.2268
lwrist -4.50462
lhand -13.516 24.2696
lfingers 7.12502
lthumb 12.5958 53.8699
rfemur -7.22611 3.14199 18.9431
rtibia 57.7888
rfoot 22.7219 20.4651
rtoes 13.6617
lfemur -16.1087 1.82096 -19.2139
ltibia 25.6468
lfoot -6.47233 -16.1634
ltoes 12.7405
1807
root -2.00766 17.6589 2.50553 -178.436 -2.75657 -179.294
lowerback 7.57469 1.45983 -1.20385
upperback 3.70008 1.60098 1.57768
thorax -0.505231 0.654556 2.17507
lowerneck -11.3505 -0.793387 -10.7576
upperneck 37.3399 -5.95712 7.4244
head 15.5222 -4.5434 3.73441
rclavicle 4.17448e-015 5.96354e-015
rhumerus -32.2346 -5.14241 -80.8069
rradius 39.7789
rwrist -11.1851
rhand -17.8232 13.4634
rfingers 7.12502
rthumb 8.44096 -16.348
lclavicle 4.17448e-015 5.96354e-015
lhumerus -38.5934 12.7067 78.8816
lradius 21.5566
lwrist -4.09883
lhand -13.3539 23.9273
lfingers 7.12502
lthumb 12.752 53.5179
rfemur -8.49398 2.36084 18.281
rtibia 60.0285
rfoot 19.9673 19.5771
rtoes 8.01701
lfemur -15.1694 1.72882 -19.7397
ltibia 24.9658
lfoot -6.51206 -15.9909
ltoes 13.4139
1808
root -2.02902 17.6707 2.39927 -178.543 -2.75468 -179.745
lowerback 7.5116 1.39167 -1.6554
upperback 3.77601 1.4771 1.48581
thorax -0.395173 0.585341 2.3462
lowerneck -11.2273 -0.832214 -10.6652
upperneck 37.1718 -5.96136 7.27508
head 15.4008 -4.54284 3.64994
rclavicle 8.94531e-016 -3.57812e-015
rhumerus -31.8516 -5.40242 -80.6865
rradius 39.9941
rwrist -11.3085
rhand -17.9599 13.6684
rfingers 7.12502
rthumb 8.30906 -16.1482
lclavicle 8.94531e-016 -3.57812e-015
lhumerus -38.3434 12.5644 79.003
lradius 21.6512
lwrist -4.08056
lhand -13.1539 23.5791
lfingers 7.12502
lthumb 12.9448 53.1576
rfemur -9.72508 1.4434 17.4992
rtibia 62.1729
rfoot 16.7187 18.5728
rtoes 3.51239
lfemur -14.2525 1.56339 -20.2853
ltibia 24.318
lfoot -6.54367 -15.8186
ltoes 13.4446
